<svg width="17" height="13" viewBox="0 0 17 13" fill="none" xmlns="http://www.w3.org/2000/svg">
<path fill-rule="evenodd" clip-rule="evenodd" d="M6.34845 1.13492L11.6981 3.16423C13.3243 3.7811 14.6041 4.26658 15.4723 4.72631C16.3299 5.18041 17 5.7188 17 6.5C17 7.28121 16.3299 7.8196 15.4723 8.27369C14.6041 8.73343 13.3243 9.2189 11.6981 9.83576L6.34845 11.8651C5.35451 12.2421 4.58128 12.5354 3.97751 12.7258C3.3867 12.9121 2.85868 13.0344 2.38917 12.9914C1.25038 12.8869 0.270453 12.2285 0.0332885 11.299C-0.0672296 10.905 0.0733238 10.4643 0.275265 10.0065C0.484355 9.53242 0.816674 8.92377 1.24004 8.14836L1.25146 8.12745C1.58234 7.52143 1.70967 7.28229 1.77465 7.04372C1.87239 6.68485 1.87239 6.31515 1.77465 5.95628C1.70967 5.71772 1.58234 5.47858 1.25146 4.87255L1.24004 4.85164C0.816673 4.07623 0.484354 3.46758 0.275265 2.99353C0.0733235 2.5357 -0.0672295 2.09498 0.0332891 1.70101C0.270454 0.771466 1.25038 0.113053 2.38917 0.00864183C2.85868 -0.0344055 3.3867 0.087928 3.97752 0.274203C4.58128 0.464561 5.35451 0.757877 6.34845 1.13492ZM3.56209 1.21087C2.98157 1.02784 2.68501 0.987427 2.51739 1.0028C1.81519 1.06718 1.30807 1.45962 1.19283 1.91132C1.17138 1.99536 1.18636 2.1902 1.38694 2.64496C1.5785 3.07927 1.89162 3.65358 2.32884 4.45438C2.33842 4.47193 2.34789 4.48926 2.35725 4.50639C2.65061 5.04352 2.83488 5.38092 2.93063 5.73248C3.06848 6.23863 3.06848 6.76137 2.93063 7.26753C2.83488 7.61909 2.65061 7.95648 2.35724 8.49362C2.34789 8.51075 2.33842 8.52808 2.32884 8.54562C1.89162 9.34642 1.57851 9.92073 1.38694 10.355C1.18636 10.8098 1.17138 11.0046 1.19283 11.0887C1.30807 11.5404 1.81519 11.9328 2.51739 11.9972C2.68501 12.0126 2.98157 11.9722 3.56209 11.7891C4.12532 11.6116 4.8634 11.3319 5.88323 10.945L11.1635 8.942C12.8479 8.30302 14.0515 7.84515 14.8415 7.42684C15.6507 6.99837 15.8139 6.72002 15.8139 6.5C15.8139 6.27998 15.6507 6.00164 14.8415 5.57317C14.0515 5.15486 12.8479 4.69698 11.1635 4.05801L5.88323 2.05501C4.8634 1.66815 4.12533 1.38845 3.56209 1.21087Z" fill="#02040F"/>
</svg>
